<?xml version="1.0" standalone="no"?><svg xmlns="http://www.w3.org/2000/svg" viewBox="0 0 1440 320"><path fill="#0099ff" fill-opacity="1" d="M0,192L34.3,160C68.6,128,137,64,206,48C274.3,32,343,64,411,96C480,128,549,160,617,170.7C685.7,181,754,171,823,138.7C891.4,107,960,53,1029,48C1097.1,43,1166,85,1234,122.7C1302.9,160,1371,192,1406,208L1440,224L1440,320L1405.7,320C1371.4,320,1303,320,1234,320C1165.7,320,1097,320,1029,320C960,320,891,320,823,320C754.3,320,686,320,617,320C548.6,320,480,320,411,320C342.9,320,274,320,206,320C137.1,320,69,320,34,320L0,320Z"></path></svg>