<svg xmlns="http://www.w3.org/2000/svg" viewBox="0 0 64 64" width="64px" height="64px"><linearGradient id="MCXzZtkcQ5mczrvvYqvmYa" x1="50" x2="50" y1="43.667" y2="52.847" gradientUnits="userSpaceOnUse" spreadMethod="reflect"><stop offset="0" stop-color="#6dc7ff"/><stop offset="1" stop-color="#e6abff"/></linearGradient><path fill="url(#MCXzZtkcQ5mczrvvYqvmYa)" d="M46,52h6c1.105,0,2-0.895,2-2v-6L46,52z"/><linearGradient id="MCXzZtkcQ5mczrvvYqvmYb" x1="32" x2="32" y1="7.833" y2="55.964" gradientUnits="userSpaceOnUse" spreadMethod="reflect"><stop offset="0" stop-color="#1a6dff"/><stop offset="1" stop-color="#c822ff"/></linearGradient><path fill="url(#MCXzZtkcQ5mczrvvYqvmYb)" d="M53,19h-7v-1c0-1.103-0.897-2-2-2v-3c0-2.757-2.243-5-5-5H25c-2.757,0-5,2.243-5,5v3 c-1.103,0-2,0.897-2,2v1h-7c-2.757,0-5,2.243-5,5v27c0,2.757,2.243,5,5,5h42c2.757,0,5-2.243,5-5V24C58,21.243,55.757,19,53,19z M38,19v-1h6v1H38z M26,16v-2h12v2c-1.103,0-2,0.897-2,2v1h-8v-1C28,16.897,27.103,16,26,16z M22,13c0-1.654,1.346-3,3-3h14 c1.654,0,3,1.346,3,3v3h-2v-2c0-1.103-0.897-2-2-2H26c-1.103,0-2,0.897-2,2v2h-2V13z M20,18h6v1h-6V18z M11,21h42 c1.654,0,3,1.346,3,3v0.764l-4.79,9.579C50.699,35.365,49.672,36,48.529,36H42v-3c0-1.103-0.897-2-2-2h-2c-1.103,0-2,0.897-2,2v3h-8 v-3c0-1.103-0.897-2-2-2h-2c-1.103,0-2,0.897-2,2v3h-6.529c-1.143,0-2.17-0.635-2.681-1.657L8,24.764V24C8,22.346,9.346,21,11,21z M40,33v7c0,0.552-0.448,1-1,1s-1-0.448-1-1v-7H40z M26,33v7c0,0.552-0.448,1-1,1s-1-0.448-1-1v-7H26z M53,54H11 c-1.654,0-3-1.346-3-3V29.236l3.001,6.001C11.853,36.941,13.565,38,15.471,38H22v2c0,1.654,1.346,3,3,3s3-1.346,3-3v-2h8v2 c0,1.654,1.346,3,3,3s3-1.346,3-3v-2h6.529c1.905,0,3.618-1.059,4.47-2.763L56,29.236V51C56,52.654,54.654,54,53,54z"/><linearGradient id="MCXzZtkcQ5mczrvvYqvmYc" x1="32" x2="32" y1="7.833" y2="55.964" gradientUnits="userSpaceOnUse" spreadMethod="reflect"><stop offset="0" stop-color="#1a6dff"/><stop offset="1" stop-color="#c822ff"/></linearGradient><path fill="url(#MCXzZtkcQ5mczrvvYqvmYc)" d="M26 23H38V25H26z"/></svg>