<svg xmlns="http://www.w3.org/2000/svg" viewBox="0 0 64 64" width="64px" height="64px"><linearGradient id="BHxBpHz68lFjof_mxxr5va" x1="17" x2="17" y1="34.917" y2="42.428" gradientUnits="userSpaceOnUse" spreadMethod="reflect"><stop offset="0" stop-color="#6dc7ff"/><stop offset="1" stop-color="#e6abff"/></linearGradient><path fill="url(#BHxBpHz68lFjof_mxxr5va)" d="M22,41c0,0.552-0.448,1-1,1h-8c-0.552,0-1-0.448-1-1v-5c0-0.552,0.448-1,1-1h8 c0.552,0,1,0.448,1,1V41z"/><linearGradient id="BHxBpHz68lFjof_mxxr5vb" x1="37" x2="37" y1="34.917" y2="42.428" gradientUnits="userSpaceOnUse" spreadMethod="reflect"><stop offset="0" stop-color="#6dc7ff"/><stop offset="1" stop-color="#e6abff"/></linearGradient><path fill="url(#BHxBpHz68lFjof_mxxr5vb)" d="M42,41c0,0.552-0.448,1-1,1h-8c-0.552,0-1-0.448-1-1v-5c0-0.552,0.448-1,1-1h8 c0.552,0,1,0.448,1,1V41z"/><linearGradient id="BHxBpHz68lFjof_mxxr5vc" x1="32" x2="32" y1="9.167" y2="54.833" gradientUnits="userSpaceOnUse" spreadMethod="reflect"><stop offset="0" stop-color="#1a6dff"/><stop offset="1" stop-color="#c822ff"/></linearGradient><path fill="url(#BHxBpHz68lFjof_mxxr5vc)" d="M47,10c-4.653,0-8.631,2.909-10.236,7H31c-1.641,0-3.088,0.806-4,2.031 C26.088,17.806,24.641,17,23,17H11c-2.757,0-5,2.243-5,5v20v2v3c0,2.757,2.243,5,5,5h13c1.103,0,2,0.897,2,2h2c0-1.103,0.897-2,2-2 h13c2.757,0,5-2.243,5-5v-3v-2V31.949C53.598,31.442,58,26.728,58,21C58,14.935,53.065,10,47,10z M24,50H11 c-1.243,0-2.311-0.76-2.766-1.84C9.027,48.689,9.977,49,11,49h12c1.015,0,1.91,0.509,2.453,1.283C25.002,50.106,24.514,50,24,50z M23,47H11c-1.654,0-3-1.346-3-3v-2V22c0-1.654,1.346-3,3-3h12c1.654,0,3,1.346,3,3v6v20.028C25.165,47.389,24.131,47,23,47z M43,50 H30c-0.514,0-1.002,0.106-1.453,0.283C29.09,49.509,29.985,49,31,49h12c1.023,0,1.973-0.311,2.766-0.84 C45.312,49.24,44.243,50,43,50z M46,42v2c0,1.654-1.346,3-3,3H31c-1.131,0-2.165,0.389-3,1.028V28v-6c0-1.654,1.346-3,3-3h5.191 C36.071,19.65,36,20.316,36,21s0.071,1.35,0.191,2H32v2h4.764c0.276,0.705,0.62,1.375,1.028,2H32v2h7.474 c1.742,1.639,4.01,2.721,6.526,2.949V42z M47,30c-4.963,0-9-4.037-9-9s4.037-9,9-9s9,4.037,9,9S51.963,30,47,30z"/><linearGradient id="BHxBpHz68lFjof_mxxr5vd" x1="17" x2="17" y1="9.167" y2="54.833" gradientUnits="userSpaceOnUse" spreadMethod="reflect"><stop offset="0" stop-color="#1a6dff"/><stop offset="1" stop-color="#c822ff"/></linearGradient><path fill="url(#BHxBpHz68lFjof_mxxr5vd)" d="M12 23H22V25H12z"/><linearGradient id="BHxBpHz68lFjof_mxxr5ve" x1="17" x2="17" y1="9.167" y2="54.833" gradientUnits="userSpaceOnUse" spreadMethod="reflect"><stop offset="0" stop-color="#1a6dff"/><stop offset="1" stop-color="#c822ff"/></linearGradient><path fill="url(#BHxBpHz68lFjof_mxxr5ve)" d="M12 27H22V29H12z"/><linearGradient id="BHxBpHz68lFjof_mxxr5vf" x1="17" x2="17" y1="9.167" y2="54.833" gradientUnits="userSpaceOnUse" spreadMethod="reflect"><stop offset="0" stop-color="#1a6dff"/><stop offset="1" stop-color="#c822ff"/></linearGradient><path fill="url(#BHxBpHz68lFjof_mxxr5vf)" d="M12 31H22V33H12z"/><linearGradient id="BHxBpHz68lFjof_mxxr5vg" x1="37" x2="37" y1="9.167" y2="54.833" gradientUnits="userSpaceOnUse" spreadMethod="reflect"><stop offset="0" stop-color="#1a6dff"/><stop offset="1" stop-color="#c822ff"/></linearGradient><path fill="url(#BHxBpHz68lFjof_mxxr5vg)" d="M32 31H42V33H32z"/><linearGradient id="BHxBpHz68lFjof_mxxr5vh" x1="47" x2="47" y1="9.167" y2="54.833" gradientUnits="userSpaceOnUse" spreadMethod="reflect"><stop offset="0" stop-color="#1a6dff"/><stop offset="1" stop-color="#c822ff"/></linearGradient><path fill="url(#BHxBpHz68lFjof_mxxr5vh)" d="M46 15H48V23H46z"/><linearGradient id="BHxBpHz68lFjof_mxxr5vi" x1="47" x2="47" y1="9.167" y2="54.833" gradientUnits="userSpaceOnUse" spreadMethod="reflect"><stop offset="0" stop-color="#1a6dff"/><stop offset="1" stop-color="#c822ff"/></linearGradient><path fill="url(#BHxBpHz68lFjof_mxxr5vi)" d="M46 25H48V27H46z"/></svg>