<svg xmlns="http://www.w3.org/2000/svg" viewBox="0 0 64 64" width="64px" height="64px"><linearGradient id="7OC0bb_0rkmVY7Mwj6ZH6a" x1="17" x2="17" y1="46.25" y2="55.004" gradientUnits="userSpaceOnUse" spreadMethod="reflect"><stop offset="0" stop-color="#6dc7ff"/><stop offset="1" stop-color="#e6abff"/></linearGradient><path fill="url(#7OC0bb_0rkmVY7Mwj6ZH6a)" d="M13,46v6c0,1.105,0.895,2,2,2h6L13,46z"/><linearGradient id="7OC0bb_0rkmVY7Mwj6ZH6b" x1="32" x2="32" y1="5.333" y2="58.343" gradientUnits="userSpaceOnUse" spreadMethod="reflect"><stop offset="0" stop-color="#1a6dff"/><stop offset="1" stop-color="#c822ff"/></linearGradient><path fill="url(#7OC0bb_0rkmVY7Mwj6ZH6b)" d="M52,37V12c0-1.302-0.839-2.402-2-2.816V9c0-1.654-1.346-3-3-3H17c-1.654,0-3,1.346-3,3v0.184 c-1.161,0.414-2,1.514-2,2.816v12c-1.654,0-3,1.346-3,3v26c0,2.757,2.243,5,5,5h37v0c0.071,0,0.142-0.002,0.214-0.005 C53.337,57.884,55,56.054,55,53.83V40C55,38.346,53.654,37,52,37z M44,11h5c0.552,0,1,0.448,1,1v6h-5c-0.552,0-1-0.448-1-1V11z M17,8h30c0.552,0,1,0.448,1,1H16C16,8.448,16.448,8,17,8z M11,53V27c0-0.552,0.448-1,1-1h7.93c0.335,0,0.646,0.166,0.832,0.445 l2.812,4.216C24.131,31.5,25.065,32,26.073,32H46c0.552,0,1,0.448,1,1v21c0,0.709,0.209,1.394,0.56,2H14C12.346,56,11,54.654,11,53z M53,53.83c0,1.141-0.849,2.112-1.891,2.167c-0.552,0.025-1.084-0.165-1.486-0.547C49.222,55.068,49,54.554,49,54V33 c0-1.654-1.346-3-3-3H26.073c-0.337,0-0.649-0.167-0.836-0.447l-2.812-4.217C21.868,24.499,20.935,24,19.93,24H14V12 c0-0.552,0.448-1,1-1h27v6c0,1.654,1.346,3,3,3h5v34c0,0.553,0.447,1,1,1s1-0.447,1-1V39c0.552,0,1,0.448,1,1V53.83z"/><linearGradient id="7OC0bb_0rkmVY7Mwj6ZH6c" x1="28" x2="28" y1="5.333" y2="58.343" gradientUnits="userSpaceOnUse" spreadMethod="reflect"><stop offset="0" stop-color="#1a6dff"/><stop offset="1" stop-color="#c822ff"/></linearGradient><path fill="url(#7OC0bb_0rkmVY7Mwj6ZH6c)" d="M18 14H38V16H18z"/><linearGradient id="7OC0bb_0rkmVY7Mwj6ZH6d" x1="28" x2="28" y1="5.333" y2="58.343" gradientUnits="userSpaceOnUse" spreadMethod="reflect"><stop offset="0" stop-color="#1a6dff"/><stop offset="1" stop-color="#c822ff"/></linearGradient><path fill="url(#7OC0bb_0rkmVY7Mwj6ZH6d)" d="M18 18H38V20H18z"/><linearGradient id="7OC0bb_0rkmVY7Mwj6ZH6e" x1="32" x2="32" y1="5.333" y2="58.343" gradientUnits="userSpaceOnUse" spreadMethod="reflect"><stop offset="0" stop-color="#1a6dff"/><stop offset="1" stop-color="#c822ff"/></linearGradient><path fill="url(#7OC0bb_0rkmVY7Mwj6ZH6e)" d="M26 22H38V24H26z"/><linearGradient id="7OC0bb_0rkmVY7Mwj6ZH6f" x1="32" x2="32" y1="5.333" y2="58.343" gradientUnits="userSpaceOnUse" spreadMethod="reflect"><stop offset="0" stop-color="#1a6dff"/><stop offset="1" stop-color="#c822ff"/></linearGradient><path fill="url(#7OC0bb_0rkmVY7Mwj6ZH6f)" d="M26 26H38V28H26z"/></svg>