<?xml version="1.0" standalone="no"?><svg xmlns="http://www.w3.org/2000/svg" viewBox="0 0 1440 320"><path fill="#000000" fill-opacity="1" d="M0,256L34.3,229.3C68.6,203,137,149,206,138.7C274.3,128,343,160,411,197.3C480,235,549,277,617,261.3C685.7,245,754,171,823,165.3C891.4,160,960,224,1029,250.7C1097.1,277,1166,267,1234,224C1302.9,181,1371,107,1406,69.3L1440,32L1440,0L1405.7,0C1371.4,0,1303,0,1234,0C1165.7,0,1097,0,1029,0C960,0,891,0,823,0C754.3,0,686,0,617,0C548.6,0,480,0,411,0C342.9,0,274,0,206,0C137.1,0,69,0,34,0L0,0Z"></path></svg>